<svg width="1200" height="700" viewBox="0 0 1200 700" fill="none" xmlns="http://www.w3.org/2000/svg">
  <rect width="1200" height="700" fill="#0A1220"/>
  <rect x="86" y="62" width="1028" height="576" rx="28" fill="#101A2B" stroke="#25384F"/>
  <rect x="126" y="108" width="188" height="484" rx="16" fill="#131E31" stroke="#2D3F5A"/>
  <rect x="344" y="108" width="730" height="484" rx="16" fill="#0F1A2C" stroke="#2D3F5A"/>

  <text x="362" y="152" fill="#E6EDF7" font-family="Segoe UI" font-size="30" font-weight="700">HOME - Vertical / Horizontal View Toggle</text>
  <rect x="850" y="120" width="200" height="40" rx="10" fill="#25C9B0"/>
  <text x="884" y="147" fill="#05231E" font-family="Segoe UI" font-size="20" font-weight="700">View: Horizontal</text>

  <rect x="370" y="188" width="156" height="170" rx="14" fill="#12243C" stroke="#35557E"/>
  <rect x="546" y="188" width="156" height="170" rx="14" fill="#12243C" stroke="#35557E"/>
  <rect x="722" y="188" width="156" height="170" rx="14" fill="#12243C" stroke="#35557E"/>
  <rect x="898" y="188" width="156" height="170" rx="14" fill="#12243C" stroke="#35557E"/>

  <circle cx="448" cy="255" r="4.5" fill="#25D7BC"/>
  <line x1="429" y1="255" x2="442" y2="255" stroke="#25D7BC" stroke-width="3" stroke-linecap="round"/>
  <line x1="454" y1="255" x2="467" y2="255" stroke="#25D7BC" stroke-width="3" stroke-linecap="round"/>
  <line x1="448" y1="236" x2="448" y2="249" stroke="#25D7BC" stroke-width="3" stroke-linecap="round"/>
  <line x1="448" y1="261" x2="448" y2="274" stroke="#25D7BC" stroke-width="3" stroke-linecap="round"/>

  <circle cx="624" cy="255" r="13" stroke="#25D7BC" stroke-width="3"/>
  <rect x="793" y="242" width="18" height="18" rx="3" stroke="#25D7BC" stroke-width="3"/>
  <rect x="962" y="244" width="14" height="14" rx="7" fill="#25D7BC"/>

  <text x="404" y="315" fill="#E6EDF7" font-family="Segoe UI" font-size="18">Classic Plus</text>
  <text x="588" y="315" fill="#E6EDF7" font-family="Segoe UI" font-size="18">Circle</text>
  <text x="760" y="315" fill="#E6EDF7" font-family="Segoe UI" font-size="18">Pump</text>
  <text x="928" y="315" fill="#E6EDF7" font-family="Segoe UI" font-size="18">Dot</text>

  <rect x="370" y="392" width="684" height="176" rx="14" fill="#12243C" stroke="#35557E"/>
  <text x="396" y="430" fill="#E6EDF7" font-family="Segoe UI" font-size="24" font-weight="700">Active Overlay Preview</text>
  <text x="396" y="468" fill="#9FB2CC" font-family="Segoe UI" font-size="20">Current Profile: Pump CQB</text>
  <text x="396" y="500" fill="#9FB2CC" font-family="Segoe UI" font-size="20">Live opacity, color, and shape updates</text>
  <text x="396" y="532" fill="#9FB2CC" font-family="Segoe UI" font-size="20">No injection, external desktop overlay</text>

  <rect x="146" y="142" width="148" height="44" rx="10" fill="#1A2740" stroke="#3C5C86"/>
  <rect x="146" y="200" width="148" height="44" rx="10" fill="#1A2740" stroke="#3C5C86"/>
  <rect x="146" y="258" width="148" height="44" rx="10" fill="#1A2740" stroke="#3C5C86"/>
  <rect x="146" y="316" width="148" height="44" rx="10" fill="#1A2740" stroke="#3C5C86"/>
  <rect x="146" y="528" width="148" height="44" rx="10" fill="#1A2740" stroke="#3C5C86"/>
</svg>
